<?xml version="1.0" encoding="UTF-8" standalone="no"?>
<svg
   data-name="Layer 1"
   width="774.02241"
   height="543.02745"
   viewBox="0 0 774.02241 543.02745"
   version="1.1"
   id="svg50"
   sodipodi:docname="creation.svg"
   inkscape:version="1.1 (c68e22c387, 2021-05-23)"
   xmlns:inkscape="http://www.inkscape.org/namespaces/inkscape"
   xmlns:sodipodi="http://sodipodi.sourceforge.net/DTD/sodipodi-0.dtd"
   xmlns="http://www.w3.org/2000/svg"
   xmlns:svg="http://www.w3.org/2000/svg">
  <defs
     id="defs54" />
  <sodipodi:namedview
     id="namedview52"
     pagecolor="#ffffff"
     bordercolor="#666666"
     borderopacity="1.0"
     inkscape:pageshadow="2"
     inkscape:pageopacity="0.0"
     inkscape:pagecheckerboard="0"
     showgrid="false"
     inkscape:zoom="1.9207132"
     inkscape:cx="387.0958"
     inkscape:cy="271.51373"
     inkscape:window-width="2400"
     inkscape:window-height="1261"
     inkscape:window-x="2391"
     inkscape:window-y="-9"
     inkscape:window-maximized="1"
     inkscape:current-layer="svg50" />
  <path
     d="M976.424,481.28168H346.17212a10.59938,10.59938,0,0,1-10.58725-10.58725V189.07353a10.59937,10.59937,0,0,1,10.58725-10.58725H976.424a10.59937,10.59937,0,0,1,10.58725,10.58725v281.6209A10.59938,10.59938,0,0,1,976.424,481.28168Z"
     transform="translate(-212.9888 -178.48628)"
     fill="#fff"
     id="path4" />
  <rect
     style="fill:#9f616a;fill-opacity:1;fill-rule:evenodd;stroke-width:1.02659"
     id="rect1045"
     width="21.066149"
     height="18.79196"
     x="206.83127"
     y="76.484474" />
  <path
     d="M976.424,481.28168H346.17212a10.59938,10.59938,0,0,1-10.58725-10.58725V189.07353a10.59937,10.59937,0,0,1,10.58725-10.58725H976.424a10.59937,10.59937,0,0,1,10.58725,10.58725v281.6209A10.59938,10.59938,0,0,1,976.424,481.28168ZM346.17212,182.72118a6.3593,6.3593,0,0,0-6.35235,6.35235v281.6209a6.3593,6.3593,0,0,0,6.35235,6.35235H976.424a6.3593,6.3593,0,0,0,6.35235-6.35235V189.07353a6.3593,6.3593,0,0,0-6.35235-6.35235Z"
     transform="translate(-212.9888 -178.48628)"
     fill="#cacaca"
     id="path6"
     style="fill:#999999;fill-opacity:1" />
  <rect
     x="507.74409"
     y="215"
     width="46"
     height="46"
     fill="#f0f0f0"
     id="rect8"
     style="fill:#999999;fill-opacity:1" />
  <rect
     x="296.74409"
     y="99"
     width="46"
     height="46"
     fill="#f0f0f0"
     id="rect10"
     style="fill:#999999;fill-opacity:1" />
  <rect
     x="501.74409"
     y="68"
     width="46"
     height="46"
     fill="#d81f1a"
     id="rect12" />
  <rect
     x="366.74409"
     y="61"
     width="46"
     height="46"
     fill="#d81f1a"
     id="rect14" />
  <rect
     x="435.74409"
     y="147"
     width="46"
     height="46"
     fill="#f0f0f0"
     id="rect16"
     style="fill:#999999;fill-opacity:1" />
  <rect
     x="604.74409"
     y="68"
     width="46"
     height="46"
     fill="#f0f0f0"
     id="rect18"
     style="fill:#999999;fill-opacity:1" />
  <rect
     x="604.74409"
     y="164"
     width="46"
     height="46"
     fill="#f0f0f0"
     id="rect20"
     style="fill:#999999;fill-opacity:1" />
  <path
     d="M528.526,471.61878a11.91482,11.91482,0,0,0-11.52148-14.17914l-10.0607-25.30057L490.07753,434.503,504.787,470.03273a11.97942,11.97942,0,0,0,23.73895,1.58605Z"
     transform="translate(-212.9888 -178.48628)"
     fill="#9f616a"
     id="path22" />
  <path
     d="M497.45278,462.729l-5.22609-12.46216-32.56676-61.99118,1.77077-114.706.34-.045c20.83854-2.75323,34.93787,93.26307,35.52813,97.35214l20.57642,70.37242,4.89814,15.51129Z"
     transform="translate(-212.9888 -178.48628)"
     fill="#e4e4e4"
     id="path24"
     style="fill:#daf2fb;fill-opacity:1" />
  <polygon
     points="234.424 526.119 250.258 526.118 257.79 465.043 234.421 465.044 234.424 526.119"
     fill="#9f616a"
     id="polygon26" />
  <path
     d="M443.37328,699.43529l31.18316-.00126h.00126a19.87342,19.87342,0,0,1,19.87235,19.872v.64577l-51.05582.00189Z"
     transform="translate(-212.9888 -178.48628)"
     fill="#2f2e41"
     id="path28" />
  <polygon
     points="88.834 501.994 101.826 511.047 142.925 465.246 123.751 451.885 88.834 501.994"
     fill="#9f616a"
     id="polygon30" />
  <path
     d="M301.46514,673.92979l25.58432,17.82784.001.00072a19.87342,19.87342,0,0,1,4.9421,27.66557l-.36922.52981-41.88881-29.18946Z"
     transform="translate(-212.9888 -178.48628)"
     fill="#2f2e41"
     id="path32" />
  <path
     d="M438.71014,690.24909l-.68423-114.57168L428.063,503.636l-18.57479,63.35382-.03612.052-67.3126,97.723-26.192-13.27065.14349-.341c1.60068-3.80715,39.318-93.22462,49.456-93.22462a5.475,5.475,0,0,0,4.66418-2.04958c2.97555-3.97335.55239-12.40468.52754-12.48934-2.90215-12.03422,4.39488-16.13261,5.84819-16.81684l3.90908-80.6949.40522.028,105.97355,7.43334L482.42884,554.2294l-9.56369,132.18613-.32853.03728Z"
     transform="translate(-212.9888 -178.48628)"
     fill="#2f2e41"
     id="path34" />
  <path
     d="M488.49391,471.22008l-.45823-.03728-113.9719-9.187.28134-37.71033,5.5783-98.46314.03165-.06834L402.67233,276.435l16.10368-7.292,23.49508-1.23643.05727.01437,21.442,5.3123,22.30525,160.11958Z"
     transform="translate(-212.9888 -178.48628)"
     fill="#e4e4e4"
     id="path36"
     style="fill:#daf2fb;fill-opacity:1" />
  <circle
     cx="431.55925"
     cy="228.93689"
     r="30.00755"
     transform="translate(-269.91499 56.57066) rotate(-28.6632)"
     fill="#9f616a"
     id="circle38" />
  <path
     d="M401.381,236.46944V224.77777s-9.42864-11.10462.94287-13.90188c0,0,2.82859-27.97264,27.34307-14.91875,0,0,33.94314-5.59452,30.17168,13.98632,0,0,8.48578-5.11192,5.65718,7.942L460.02517,238.913s2.642-13.89025-5.84379-15.7551l-4.71433-2.79726s-13.2001,13.0539-33.00026-2.79727c0,0-8.48578-2.02533-7.54292,6.36646S401.381,236.46944,401.381,236.46944Z"
     transform="translate(-212.9888 -178.48628)"
     fill="#2f2e41"
     id="path40" />
  <path
     d="M428.4349,443.059A11.91485,11.91485,0,0,0,414.556,431.17756l-14.43764-23.08443-16.16823,5.35223,20.8466,32.31332A11.97942,11.97942,0,0,0,428.4349,443.059Z"
     transform="translate(-212.9888 -178.48628)"
     fill="#9f616a"
     id="path42" />
  <path
     d="M391.14526,435.78224l-26.11977-53.03056.02311-.12893c.10524-.58715,10.61935-58.96651,18.66081-80.425,8.09232-21.59441,19.16912-25.93007,19.63667-26.104l.23377-.087,9.932,9.5268-13.7582,91.83209,14.83017,44.28934Z"
     transform="translate(-212.9888 -178.48628)"
     fill="#e4e4e4"
     id="path44"
     style="fill:#daf2fb;fill-opacity:1" />
  <rect
     x="321.71878"
     y="226.69504"
     width="46"
     height="46"
     fill="#d81f1a"
     id="rect46" />
</svg>
