<?xml version="1.0" encoding="UTF-8" standalone="no"?>
<svg
   data-name="Layer 1"
   width="949.65141"
   height="482.32297"
   viewBox="0 0 949.65141 482.32297"
   version="1.1"
   id="svg90"
   sodipodi:docname="userFlow.svg"
   inkscape:version="1.1 (c68e22c387, 2021-05-23)"
   xmlns:inkscape="http://www.inkscape.org/namespaces/inkscape"
   xmlns:sodipodi="http://sodipodi.sourceforge.net/DTD/sodipodi-0.dtd"
   xmlns="http://www.w3.org/2000/svg"
   xmlns:svg="http://www.w3.org/2000/svg">
  <defs
     id="defs94" />
  <sodipodi:namedview
     id="namedview92"
     pagecolor="#ffffff"
     bordercolor="#666666"
     borderopacity="1.0"
     inkscape:pageshadow="2"
     inkscape:pageopacity="0.0"
     inkscape:pagecheckerboard="0"
     showgrid="false"
     inkscape:zoom="1.6353369"
     inkscape:cx="1052.6883"
     inkscape:cy="436.91303"
     inkscape:window-width="1920"
     inkscape:window-height="991"
     inkscape:window-x="-9"
     inkscape:window-y="-9"
     inkscape:window-maximized="1"
     inkscape:current-layer="svg90" />
  <path
     d="M895.523,393.27124l-64.12288,10.64222a12.5,12.5,0,1,1-4.09316-24.66264l64.12288-10.64222a12.5,12.5,0,0,1,4.09316,24.66264Zm-67.88859-12.04741a10.5,10.5,0,1,0,3.43826,20.71662l64.12287-10.64222a10.5,10.5,0,1,0-3.43825-20.71662Z"
     transform="translate(-125.1743 -208.83851)"
     fill="#ccc"
     id="path40"
     style="fill:#999999;fill-opacity:1" />
  <rect
     style="fill:#a0616a;fill-opacity:1;fill-rule:evenodd;stroke:none"
     id="rect1201"
     width="14.079078"
     height="17.565325"
     x="728.62579"
     y="160.63557" />
  <path
     d="M1026.57333,610.2849a87.37077,87.37077,0,0,1-6.03,24.6211,75.86551,75.86551,0,0,1-11.77919,19.24007c-9.93464,11.95066-23.071,20.93554-37.33747,26.92228a139.89665,139.89665,0,0,1-34.01656,9.14008c-4.83493-.34113-9.63565-.74143-14.3919-1.1733-.02873-.00746-.06646-.0048-.09566-.01222-.22857-.02175-.45761-.04352-.67632-.05649-.98169-.09185-1.96384-.18361-2.93632-.276l.22973.43835.721,1.36022c-.25913-.45524-.51805-.901-.77718-1.35626-.07621-.13665-.16164-.2727-.2374-.40944A77.33219,77.33219,0,0,0,940.919,621.07547a77.99462,77.99462,0,0,0-14.53734-33.333c.97379-.2959,1.96076-.53592,2.95892-.74834a80.86547,80.86547,0,0,1,7.37638,12.21746,79.23561,79.23561,0,0,1,6.83617,49.29313,81.00976,81.00976,0,0,1-20.5247,40.40658c.92347-.06508,1.85593-.14028,2.7684-.22354,17.28381-1.46434,34.5324-5.18,50.209-12.79087a90.428,90.428,0,0,0,33.87582-27.79573c9.49432-13.09391,13.678-28.844,14.39664-44.85183.762-17.13777-1.46162-34.57655-5.37273-51.2429a215.082,215.082,0,0,0-18.0729-49.23043,1.5464,1.5464,0,0,1,.614-2.04145,1.31531,1.31531,0,0,1,.98-.20166,1.145,1.145,0,0,1,.75589.64751c.98814,1.92854,1.95787,3.85837,2.89074,5.80977a217.5233,217.5233,0,0,1,17.02837,51.075C1026.5374,575.10593,1028.37127,592.932,1026.57333,610.2849Z"
     transform="translate(-125.1743 -208.83851)"
     fill="#fff"
     id="path4" />
  <path
     d="M289.1743,222.06157h-147a17.0241,17.0241,0,0,0-17,17v231a17.02411,17.02411,0,0,0,17,17h147a17.02412,17.02412,0,0,0,17-17v-231A17.02411,17.02411,0,0,0,289.1743,222.06157Zm15,248a15.01828,15.01828,0,0,1-15,15h-147a15.01828,15.01828,0,0,1-15-15v-231a15.01828,15.01828,0,0,1,15-15h147a15.01828,15.01828,0,0,1,15,15Z"
     transform="translate(-125.1743 -208.83851)"
     fill="#3f3d56"
     id="path10" />
  <path
     d="M604.1743,487.06157h-147a17.01917,17.01917,0,0,1-17-17v-231a17.01917,17.01917,0,0,1,17-17h147a17.01917,17.01917,0,0,1,17,17v231A17.01917,17.01917,0,0,1,604.1743,487.06157Zm-147-263a15.017,15.017,0,0,0-15,15v231a15.017,15.017,0,0,0,15,15h147a15.017,15.017,0,0,0,15-15v-231a15.017,15.017,0,0,0-15-15Z"
     transform="translate(-125.1743 -208.83851)"
     fill="#3f3d56"
     id="path12" />
  <path
     d="M393.1743,356.06157h-61a1,1,0,0,1,0-2h61a1,1,0,0,1,0,2Z"
     transform="translate(-125.1743 -208.83851)"
     fill="#3f3d56"
     id="path14" />
  <path
     d="M380.175,383.48735a1,1,0,0,1-.60669-1.79541l31.82349-24.24414a2.99985,2.99985,0,0,0,0-4.77246L379.56834,328.4312a.99993.99993,0,0,1,1.21191-1.59082l31.82349,24.24414a4.99949,4.99949,0,0,1,0,7.9541l-31.82349,24.24414A.99371.99371,0,0,1,380.175,383.48735Z"
     transform="translate(-125.1743 -208.83851)"
     fill="#3f3d56"
     id="path16" />
  <path
     d="M707.1743,356.06157h-61a1,1,0,0,1,0-2h61a1,1,0,0,1,0,2Z"
     transform="translate(-125.1743 -208.83851)"
     fill="#3f3d56"
     id="path18" />
  <path
     d="M694.175,383.48735a1,1,0,0,1-.60669-1.79541l31.82349-24.24414a2.99985,2.99985,0,0,0,0-4.77246L693.56834,328.4312a.99993.99993,0,0,1,1.21191-1.59082l31.82349,24.24414a4.99949,4.99949,0,0,1,0,7.9541l-31.82349,24.24414A.99371.99371,0,0,1,694.175,383.48735Z"
     transform="translate(-125.1743 -208.83851)"
     fill="#3f3d56"
     id="path20" />
  <path
     d="M548.67432,315.56152h-35a8.50949,8.50949,0,0,1-8.5-8.5v-34a8.5095,8.5095,0,0,1,8.5-8.5h35a8.50951,8.50951,0,0,1,8.5,8.5v34A8.5095,8.5095,0,0,1,548.67432,315.56152Z"
     transform="translate(-125.1743 -208.83851)"
     fill="#d81f1a"
     id="path22" />
  <path
     d="M555.1743,315.06157a.99638.99638,0,0,1-.707-.293l-48-48a.99989.99989,0,1,1,1.41407-1.41406l48,48a1,1,0,0,1-.707,1.707Z"
     transform="translate(-125.1743 -208.83851)"
     fill="#fff"
     id="path24" />
  <path
     d="M507.1743,315.06157a1,1,0,0,1-.707-1.707l48-48a.99989.99989,0,1,1,1.41407,1.41406l-48,48A.99636.99636,0,0,1,507.1743,315.06157Z"
     transform="translate(-125.1743 -208.83851)"
     fill="#fff"
     id="path26" />
  <path
     d="M563.1743,368.06157h-65a12.5,12.5,0,0,1,0-25h65a12.5,12.5,0,0,1,0,25Zm-65-23a10.5,10.5,0,0,0,0,21h65a10.5,10.5,0,0,0,0-21Z"
     transform="translate(-125.1743 -208.83851)"
     fill="#3f3d56"
     id="path28" />
  <path
     d="M563.1743,406.06157h-65a12.5,12.5,0,0,1,0-25h65a12.5,12.5,0,0,1,0,25Zm-65-23a10.5,10.5,0,0,0,0,21h65a10.5,10.5,0,0,0,0-21Z"
     transform="translate(-125.1743 -208.83851)"
     fill="#3f3d56"
     id="path30" />
  <path
     d="M563.1743,444.06157h-65a12.5,12.5,0,0,1,0-25h65a12.5,12.5,0,0,1,0,25Zm-65-23a10.5,10.5,0,0,0,0,21h65a10.5,10.5,0,0,0,0-21Z"
     transform="translate(-125.1743 -208.83851)"
     fill="#3f3d56"
     id="path32" />
  <path
     d="M906.00577,209.06928,760.98942,233.13706a17.02411,17.02411,0,0,0-13.98725,19.554L784.823,480.57385a17.02411,17.02411,0,0,0,19.55394,13.98725l145.01636-24.06778a17.02411,17.02411,0,0,0,13.98724-19.55395L925.55972,223.05653A17.02412,17.02412,0,0,0,906.00577,209.06928ZM961.4075,451.26682a15.01829,15.01829,0,0,1-12.34169,17.25349L804.04946,492.58809A15.01828,15.01828,0,0,1,786.796,480.2464l-37.8208-227.88284a15.01828,15.01828,0,0,1,12.34169-17.25348L906.33322,211.0423A15.01827,15.01827,0,0,1,923.5867,223.384Z"
     transform="translate(-125.1743 -208.83851)"
     fill="#3f3d56"
     id="path34" />
  <path
     d="M880.46021,302.51271l-64.12288,10.64222a12.5,12.5,0,0,1-4.09316-24.66265l64.12288-10.64221a12.5,12.5,0,0,1,4.09316,24.66264ZM812.57162,290.4653a10.5,10.5,0,0,0,3.43826,20.71662l64.12288-10.64222a10.5,10.5,0,0,0-3.43826-20.71662Z"
     transform="translate(-125.1743 -208.83851)"
     fill="#ccc"
     id="path36"
     style="fill:#999999;fill-opacity:1" />
  <path
     d="M887.99162,347.892l-64.12287,10.64221a12.5,12.5,0,1,1-4.09316-24.66264l64.12287-10.64222a12.5,12.5,0,0,1,4.09316,24.66265ZM820.103,335.84456a10.5,10.5,0,0,0,3.43825,20.71662L887.66417,345.919a10.5,10.5,0,0,0-3.43825-20.71662Z"
     transform="translate(-125.1743 -208.83851)"
     fill="#ccc"
     id="path38"
     style="fill:#999999;fill-opacity:1" />
  <path
     d="M903.05445,438.65051l-64.12288,10.64222a12.5,12.5,0,0,1-4.09316-24.66265l64.12288-10.64221a12.5,12.5,0,0,1,4.09316,24.66264Zm-67.88858-12.04742a10.5,10.5,0,1,0,3.43825,20.71663L902.727,436.6775a10.5,10.5,0,0,0-3.43826-20.71662Z"
     transform="translate(-125.1743 -208.83851)"
     fill="#ccc"
     id="path42"
     style="fill:#999999;fill-opacity:1" />
  <path
     d="M926.76609,236.43308l-176.58454,29.307a1,1,0,1,1-.32745-1.973l176.58454-29.307a1,1,0,1,1,.32745,1.973Z"
     transform="translate(-125.1743 -208.83851)"
     fill="#3f3d56"
     id="path44" />
  <circle
     cx="644.19005"
     cy="38.11378"
     r="7"
     fill="#d81f1a"
     id="circle46" />
  <path
     d="M908.79327,219.75712l-19.73012,3.27453a1,1,0,0,1-.32745-1.973l19.73011-3.27453a1,1,0,0,1,.32746,1.973Z"
     transform="translate(-125.1743 -208.83851)"
     fill="#3f3d56"
     id="path48" />
  <path
     d="M909.77562,225.67616l-19.73011,3.27452a1,1,0,0,1-.32745-1.973l19.73011-3.27453a1,1,0,0,1,.32745,1.973Z"
     transform="translate(-125.1743 -208.83851)"
     fill="#3f3d56"
     id="path50" />
  <path
     d="M910.758,231.59519l-19.73011,3.27453a1,1,0,1,1-.32746-1.973l19.73012-3.27453a1,1,0,1,1,.32745,1.973Z"
     transform="translate(-125.1743 -208.83851)"
     fill="#3f3d56"
     id="path52" />
  <path
     d="M253.17432,372.56152h-75a8.50949,8.50949,0,0,1-8.5-8.5v-76a8.5095,8.5095,0,0,1,8.5-8.5h75a8.50951,8.50951,0,0,1,8.5,8.5v76A8.5095,8.5095,0,0,1,253.17432,372.56152Z"
     transform="translate(-125.1743 -208.83851)"
     fill="#d81f1a"
     id="path54" />
  <path
     d="M247.6743,429.06157h-65a12.5,12.5,0,1,1,0-25h65a12.5,12.5,0,1,1,0,25Zm-65-23a10.5,10.5,0,1,0,0,21h65a10.5,10.5,0,1,0,0-21Z"
     transform="translate(-125.1743 -208.83851)"
     fill="#3f3d56"
     id="path56" />
  <path
     d="M259.6743,371.06157a.99686.99686,0,0,1-.70716-.293l-88-88a1,1,0,1,1,1.41431-1.41406l88,88a1,1,0,0,1-.70715,1.707Z"
     transform="translate(-125.1743 -208.83851)"
     fill="#fff"
     id="path58" />
  <path
     d="M171.6743,371.06157a1,1,0,0,1-.70716-1.707l88-88a1,1,0,1,1,1.41431,1.41406l-88,88A.99683.99683,0,0,1,171.6743,371.06157Z"
     transform="translate(-125.1743 -208.83851)"
     fill="#fff"
     id="path60" />
  <path
     d="M944.22819,473.25121a10.74269,10.74269,0,0,0-8.95-13.82913l-51.333-59.98324-11.97264,12.57092,51.13082,57.51348a10.80091,10.80091,0,0,0,21.12485,3.728Z"
     transform="translate(-125.1743 -208.83851)"
     fill="#a0616a"
     id="path62" />
  <path
     d="M898.81518,412.07537l-18.34937,13.4105a4.5,4.5,0,0,1-6.63811-1.53875l-10.54464-20.05559A12.49741,12.49741,0,0,1,883.506,389.20245l15.85888,16.081a4.5,4.5,0,0,1-.54971,6.79191Z"
     transform="translate(-125.1743 -208.83851)"
     fill="#d81f1a"
     id="path64"
     style="fill:#daf2fb;fill-opacity:1" />
  <circle
     cx="738.23303"
     cy="138.60106"
     r="24.56103"
     fill="#a0616a"
     id="circle66" />
  <path
     d="M874.076,458.24779a4.56008,4.56008,0,0,1-.76026-.06347l-43.095-7.25391a4.49154,4.49154,0,0,1-3.75293-4.36719c-.1311-9.85937.60669-34.748,10.26587-52.876A26.49093,26.49093,0,0,1,885.93029,412.073a392.99723,392.99723,0,0,0-7.40235,42.21,4.497,4.497,0,0,1-4.4519,3.96484Z"
     transform="translate(-125.1743 -208.83851)"
     fill="#2f2e41"
     id="path68"
     style="fill:#daf2fb;fill-opacity:1" />
  <path
     d="M783.7226,377.37656a10.5262,10.5262,0,0,1,.2393,1.64013l42.95745,24.782,10.44142-6.01094L848.49193,412.36l-17.45034,12.43754a8,8,0,0,1-9.5982-.23384l-44.29652-34.94583a10.49709,10.49709,0,1,1,6.57573-12.24133Z"
     transform="translate(-125.1743 -208.83851)"
     fill="#a0616a"
     id="path70" />
  <path
     d="M827.50959,401.32154a4.49516,4.49516,0,0,1,2.21126-3.025l19.713-11.02279a12.49742,12.49742,0,0,1,15.32664,19.74414l-15.71733,16.32121a4.5,4.5,0,0,1-6.80392-.37267l-13.88374-17.994A4.495,4.495,0,0,1,827.50959,401.32154Z"
     transform="translate(-125.1743 -208.83851)"
     fill="#d81f1a"
     id="path72"
     style="fill:#daf2fb;fill-opacity:1" />
  <polygon
     points="681.537 469.689 669.277 469.689 666.391 422.554 681.539 422.401 681.537 469.689"
     fill="#a0616a"
     id="polygon74" />
  <path
     d="M809.83757,690.41171l-39.53051-.00146v-.5A15.38605,15.38605,0,0,1,785.69353,674.524h.001l24.1438.001Z"
     transform="translate(-125.1743 -208.83851)"
     fill="#2f2e41"
     id="path76" />
  <polygon
     points="798.537 469.689 786.277 469.689 780.445 422.401 798.539 422.401 798.537 469.689"
     fill="#a0616a"
     id="polygon78" />
  <path
     d="M926.83757,690.41171l-39.53051-.00146v-.5A15.38605,15.38605,0,0,1,902.69353,674.524h.001l24.1438.001Z"
     transform="translate(-125.1743 -208.83851)"
     fill="#2f2e41"
     id="path80" />
  <path
     d="M909.77306,654.00561a4.52288,4.52288,0,0,1-4.25293-3.01368L866.45055,539.365a2.50019,2.50019,0,0,0-4.35986-.67383l-38.1106,50.81348a3.53472,3.53472,0,0,0-.61523,1.335l-12.1438,54.17969a4.50816,4.50816,0,0,1-4.18653,3.51074l-14.54492.66113a4.448,4.448,0,0,1-3.39551-1.32226,4.50585,4.50585,0,0,1-1.303-3.40235l2.53613-49.45214a115.39927,115.39927,0,0,1,12.10351-45.97168A259.33814,259.33814,0,0,0,829.56554,446.865l.03076-.55371,44.7522,7.12012,6.718,9.30176a128.63132,128.63132,0,0,0,9.72461,12.01562c8.5559,9.27637,11.12426,21.68262,11.77221,30.45606a253.54721,253.54721,0,0,0,4.57031,32.08886L929.3275,646.35522a4.4996,4.4996,0,0,1-3.76318,5.6289l-15.21485,1.98438A4.41821,4.41821,0,0,1,909.77306,654.00561Z"
     transform="translate(-125.1743 -208.83851)"
     fill="#2f2e41"
     id="path82" />
  <path
     d="M890.56481,330.39233a108.93148,108.93148,0,0,1-4.30468-18.14538c-.28713-3.58653.63165-7.44558,3.24355-9.92018,4.88806-4.6311,13.19292-2.42535,18.30473,1.95753,7.38773,6.33426,11.07227,16.06872,12.46475,25.70005s.7798,19.42538,1.115,29.15107,1.72617,19.72594,6.6845,28.09949,14.15946,14.801,23.86479,14.08837a16.79538,16.79538,0,0,0,10.51373-4.45559,12.19082,12.19082,0,0,0,3.66134-10.586c4.9605,8.88241,2.44591,20.92093-4.9531,27.90364s-18.7801,8.95664-28.50715,5.97535-17.73274-10.45674-22.51463-19.43656-6.5342-19.35318-6.28026-29.52368c.195-7.81015,1.52262-15.68424.20282-23.38454s-6.139-15.51891-13.73829-17.33222Z"
     transform="translate(-125.1743 -208.83851)"
     fill="#2f2e41"
     id="path84" />
  <path
     d="M856.43841,340.51615c-1.29564,4.32812-6.25148,6.997-10.70967,6.265s-8.12419-4.40348-9.47887-8.71348a17.9382,17.9382,0,0,1,1.40188-13.15052,20.47844,20.47844,0,0,1,11.71739-10.43688,16.8141,16.8141,0,0,1,15.28884,2.443,5.62275,5.62275,0,0,1,3.92929-4.10922,10.7447,10.7447,0,0,1,5.89659.087,24.29568,24.29568,0,0,1,13.52232,9.83737,39.53587,39.53587,0,0,1,6.12865,15.79793c1.50872,8.46858.95222,17.7224-3.804,24.88978s-14.48685,11.39952-22.38095,7.98246c-.49223-2.51643.67386-5.05028,2.02294-7.2308s2.948-4.3047,3.46623-6.81589-.47529-5.58289-2.90434-6.40412c-2.07227-.70061-4.28168.43447-6.46488.57154a7.08405,7.08405,0,0,1-6.79537-10.20742Z"
     transform="translate(-125.1743 -208.83851)"
     fill="#2f2e41"
     id="path86" />
</svg>
